/* XPM */
static char *_07c498c364945ece465a4c3c61e4c54qQXdgYcdIFR3Lpkp[] = {
/* columns rows colors chars-per-pixel */
"32 32 116 2 ",
"   c None",
".  c #1C2617",
"X  c #1D2718",
"o  c #1E2718",
"O  c #1D2919",
"+  c #1F291A",
"@  c #252517",
"#  c #202A1B",
"$  c #212B1C",
"%  c #212C1C",
"&  c #222C1D",
"*  c #232D1F",
"=  c #262F1E",
"-  c #3E2014",
";  c #2B2F20",
":  c #253020",
">  c #283323",
",  c #293424",
"<  c #2B3726",
"1  c #2E3828",
"2  c #2E3928",
"3  c #393625",
"4  c #303A29",
"5  c #313C2B",
"6  c #323C2B",
"7  c #323D2B",
"8  c #313C2C",
"9  c #323C2C",
"0  c #323D2C",
"q  c #333F2E",
"w  c #343E2D",
"e  c #521F13",
"r  c #571D12",
"t  c #5B1D12",
"y  c #701B0F",
"u  c #492418",
"i  c #50271A",
"p  c #6B2E1F",
"a  c #74251A",
"s  c #7D261A",
"d  c #4B2E20",
"f  c #5B2E20",
"g  c #5B2F20",
"h  c #423626",
"j  c #513E2E",
"k  c #354130",
"l  c #374130",
"z  c #374333",
"x  c #384232",
"c  c #3B4535",
"v  c #3C4736",
"b  c #3C4737",
"n  c #3C4837",
"m  c #3D4738",
"M  c #3E4738",
"N  c #3C4838",
"B  c #3D4838",
"V  c #3F4A39",
"C  c #3F493A",
"Z  c #3F493B",
"A  c #3F4A3A",
"S  c #404A3B",
"D  c #404B3B",
"F  c #454E40",
"G  c #475340",
"H  c #485341",
"J  c #596150",
"K  c #666D5B",
"L  c #8B160E",
"P  c #B50F0A",
"I  c #B5100B",
"U  c #B5110B",
"Y  c #B6100B",
"T  c #BA150F",
"R  c #BB150F",
"E  c #BF1915",
"W  c #8B271D",
"Q  c #873325",
"!  c #C01A13",
"~  c #C72019",
"^  c #CA231B",
"/  c #CB261C",
"(  c #CC261C",
")  c #CD261D",
"_  c #C62E26",
"`  c #D52D22",
"'  c #D42D23",
"]  c #D62F23",
"[  c #D82F25",
"{  c #D73025",
"}  c #DA3227",
"|  c #DB3327",
" . c #DA3228",
".. c #DB3228",
"X. c #DB3328",
"o. c #DB3329",
"O. c #DB3529",
"+. c #DB372C",
"@. c #CE3B31",
"#. c #DE4337",
"$. c #E04E43",
"%. c #E05044",
"&. c #E05146",
"*. c #E26055",
"=. c #E36257",
"-. c #7C8573",
";. c #858C79",
":. c #999C89",
">. c #A0A38F",
",. c #A5A592",
"<. c #A4A692",
"1. c #A7A995",
"2. c #A8A993",
"3. c #A9AA94",
"4. c #ADAE98",
"5. c #C4C1AB",
/* pixels */
"                                                    X.          ",
"                                            X.X.X.X.            ",
"                                    } ` { X.                    ",
"                          C C c x j X.( E                       ",
"                        D l 8       @._ R I I P                 ",
"                    m m w           1.-.        I I I           ",
"                    v             2.3.:.                        ",
"                  C 5           <.5.5.5.>.                      ",
"                D w           ` } X.X.X.` ! I                   ",
"                C           [ #.&.&.&.O.X.} R I                 ",
"                l         ( X.$.*.*.*.+.X.X.~ I                 ",
"              C 8         / X.X.X.X.X.X.X.X.^ I                 ",
"              C 8         / X.X.X.X.X.X.X.X.^ I                 ",
"              n 5         / X.X.X.X.X.X.X.X.^ I                 ",
"              v 5         / X.X.X.X.X.X.X.X.^ I                 ",
"              v 5         / X.X.X.X.X.X.X.X.^ I                 ",
"              v 5         / X.X.X.X.X.X.X.X.^ I                 ",
"              v 5       < 3 h h h h h h h h d e y               ",
"              K J       8 8 8 8 8 8 8 8 8 8 > . r               ",
"              5.<.        p Q Q Q Q Q Q Q Q W L                 ",
"              4.;.        / X.X.X.X.X.X.X.X.^ I                 ",
"            l H G :       / X.X.X.X.X.X.X.X.^ I                 ",
"            C F 8 O       / X.X.X.X.X.X.X.X.^ I                 ",
"            8 8 8 & =     / X.X.X.X.X.X.X.X.^ I                 ",
"            8 8 5 X &     / X.X.X.X.X.X.X.X.^ I                 ",
"          8 8 4 & . $     / X.X.X.X.X.X.X.X.^ I                 ",
"          # X . . . O     / X.X.X.X.X.X.X.X.^ I                 ",
"                          / X.X.X.X.X.X.X.X.^ I                 ",
"                          g 5 5 5 5 5 5 5 5 ; @ t               ",
"                          g 2 2 2 2 2 2 2 < X . r               ",
"                          a . . . . . . . . . . r               ",
"                          s i i i i i i i i u -                 "
};
