/* XPM */
static char *_9a96c3c4c3b40e9e1aaca7fc964e13e4M0Q1K6r2irHzF2I[] = {
/* columns rows colors chars-per-pixel */
"32 32 30 1 ",
"  c None",
". c #338727",
"X c #368E2B",
"o c #38912D",
"O c #39922C",
"+ c #38922D",
"@ c #38942F",
"# c #3B9830",
"$ c #3D9B32",
"% c #3D9C32",
"& c #3E9C32",
"* c #40A235",
"= c #40A335",
"- c #41A336",
"; c #41A436",
": c #41A536",
"> c #43A737",
", c #43A837",
"< c #42A738",
"1 c #43A738",
"2 c #42A838",
"3 c #43A838",
"4 c #42A938",
"5 c #43A938",
"6 c #43A839",
"7 c #43A939",
"8 c #44A838",
"9 c #44A938",
"0 c #44A839",
"q c #44A939",
/* pixels */
"                                ",
"                                ",
"                                ",
"                                ",
"                                ",
"                                ",
"                                ",
"                                ",
"                                ",
"                                ",
"                                ",
"                      3         ",
"31     1           3  1         ",
">3     3     3   1 3 33 33 1    ",
" 33   ,3  3  3  ,333333 8383  3 ",
" 33 3333  3 333 333333383333>33 ",
" 3333333383833, 3333333331>3333 ",
" 3333>=333333333333333333=%3333 ",
" 3333==333333333333333333333333 ",
"$######X######################% ",
"o.............................o ",
"@ooooooooooooooooooooooooooooo  ",
"                                ",
"                                ",
"                                ",
"                                ",
"                                ",
"                                ",
"                                ",
"                                ",
"                                ",
"                                "
};
