/* XPM */
static char *e584fff9d5c64d15b682398a39a252d30TzBeHE87rw48PkM[] = {
/* columns rows colors chars-per-pixel */
"32 32 176 2 ",
"   c None",
".  c gray10",
"X  c #1B1B1B",
"o  c #3E3E3E",
"O  c #422C18",
"+  c #422D18",
"@  c #673C13",
"#  c #673D13",
"$  c #4C3521",
"%  c #503926",
"&  c #533C29",
"*  c #414141",
"=  c #535353",
"-  c gray34",
";  c #727272",
":  c gray46",
">  c #7E7E7E",
",  c #864814",
"<  c #925010",
"1  c #B05701",
"2  c #B15701",
"3  c #B05801",
"4  c #B15801",
"5  c #B25901",
"6  c #B45902",
"7  c #B45A02",
"8  c #B65B03",
"9  c #B35A04",
"0  c #B35B04",
"q  c #B35B05",
"w  c #B25B07",
"e  c #B35C06",
"r  c #B45C05",
"t  c #B45C06",
"y  c #B45C07",
"u  c #B85E05",
"i  c #B95E05",
"p  c #B35D08",
"a  c #B5600C",
"s  c #B4610C",
"d  c #B5600D",
"f  c #B6620E",
"g  c #B7620E",
"h  c #B6620F",
"j  c #BB620D",
"k  c #B66210",
"l  c #B76310",
"z  c #B76211",
"x  c #B76410",
"c  c #B76412",
"v  c #B76512",
"b  c #B76514",
"n  c #B86412",
"m  c #BF6611",
"M  c #B86515",
"N  c #B96717",
"B  c #BA6717",
"V  c #BA6719",
"C  c #B96818",
"Z  c #B96918",
"A  c #B96819",
"S  c #B96919",
"D  c #BA6818",
"F  c #B9691A",
"G  c #BA6C1E",
"H  c #81542C",
"J  c #8C5B32",
"K  c #8C5D36",
"L  c #8C5E37",
"P  c #8C5F3A",
"I  c #98663A",
"U  c #9D673C",
"Y  c #BB6C20",
"T  c #C2650D",
"R  c #C3650D",
"E  c #C66A1E",
"W  c #CC721E",
"Q  c #E26D07",
"!  c #E36D07",
"~  c #F67001",
"^  c #F77001",
"/  c #FD7200",
"(  c #FF7300",
")  c #FF7402",
"_  c #FF7A0B",
"`  c #FF7A0C",
"'  c #E77717",
"]  c #D37926",
"[  c #D37927",
"{  c #D0792A",
"}  c #D07A2A",
"|  c #C07832",
" . c #C17832",
".. c #C37D38",
"X. c #C37E39",
"o. c #8C694B",
"O. c #8C7460",
"+. c #8C7B6D",
"@. c #8C7F75",
"#. c #FF8018",
"$. c #FF8118",
"%. c #DD8330",
"&. c #DD8331",
"*. c #FF8B2C",
"=. c #E18634",
"-. c #E58939",
";. c #E58A39",
":. c #EA8F3F",
">. c #FF8E31",
",. c #FF8E32",
"<. c #FF933B",
"1. c #FF943B",
"2. c #8C8075",
"3. c #AE947A",
"4. c #AF957C",
"5. c #C68047",
"6. c #CD9258",
"7. c #CD9259",
"8. c #CE955B",
"9. c #CE955C",
"0. c #F29647",
"q. c #FF9742",
"w. c #FF9842",
"e. c #F29748",
"r. c #F6994B",
"t. c #FF9B48",
"y. c #FF9B49",
"u. c #FC9D4C",
"i. c #FF9D4D",
"p. c #FF9E4E",
"a. c #FCA054",
"s. c #FDA054",
"d. c #FFA255",
"f. c #D29E6B",
"g. c #D4A576",
"h. c #8D8D8D",
"j. c #B2B2B2",
"k. c #D9AD82",
"l. c #D9AE84",
"z. c #D9AF86",
"x. c #DAB189",
"c. c #E8B486",
"v. c #E8B78A",
"b. c #E0B994",
"n. c #E0BA95",
"m. c #FFC08C",
"M. c #FFC18D",
"N. c #FFC596",
"B. c #FFC697",
"V. c #FFC89B",
"C. c #FFC99C",
"Z. c #E3C4A5",
"A. c #E4C6A8",
"S. c #E7CCB2",
"D. c #E7CDB3",
"F. c #E7CEB4",
"G. c #E9D0B8",
"H. c #E9D2BA",
"J. c #F3D1B2",
"K. c #F3D2B4",
"L. c #F2E5D7",
"P. c #FFE6D1",
"I. c #F3E6D9",
"U. c #F5E9DE",
"Y. c #F5EBE0",
"T. c #F2EBE6",
"R. c #F3ECE7",
"E. c #FFEFE2",
"W. c #FFF4EA",
"Q. c #FFF4EB",
"!. c #F9F3ED",
"~. c #FBF6F1",
"^. c #FCF8F4",
"/. c gray98",
"(. c #FFFCF9",
"). c white",
/* pixels */
"                                                                ",
"                                                                ",
"                                                                ",
"                                                                ",
"                                                                ",
"                                                                ",
"      f 2 2 0 t                                 e 0 2 2 f       ",
"      D v.s.0.%.j t                         t j %.e.s.c.D       ",
"      D H.N.s.s.s.=.0 8 5 T W ] ] W T 5 8 0 =.s.s.s.N.H.D       ",
"      V F.n.} s.s.s.r.' / 1.s.s.s.s.<./ ' r.s.s.s.} n.D.D       ",
"      D A.~.M :.s.s.s.p.` t.s.s.s.s.t._ p.s.s.s.:.b ~.Z.D       ",
"      l x.4.# H L L L L J L L L L L L J L L L L H # 3.l.l       ",
"        | O . h.. . . . . . . % % . = = . . . . . . O |         ",
"        5 , . h.h.. . . . . $ < < $ = > = . . . . . , 5         ",
"      0 -.s.& . h.h.. . . . 5.s.s.5.. = > = . . . & s.-.0       ",
"      m q.*.E . . h.. . . L U . . I L . = = . . . E *.w.m       ",
"    i ! / ) ,.L P o.O.+.2.E.R.* o T.E.@.+.O.o.P L ,.) / ! i     ",
"    8 ^ #.t.M.P.(.).).).).)./.- - /.).).).).).(.P.M.t.#.^ 8     ",
"    5 p.C.Q.).).).).).).).).: ; ; : ).).).).).).).).Q.V.p.5     ",
"    t K.).).).).).).).).).).j././.j.).).).).).).).).).).J.t     ",
"    x l.).).).).).).).).).).).).).).).).).).).).).).).).k.x     ",
"      l Y.).).).).).).).).).).).).).).).).).).).).).).U.f       ",
"        Y I.).).).).).).).).).).).).).).).).).).).).L.G         ",
"          f l.^.).).).).).).).).).).).).).).).).^.k.f           ",
"            n f 9.F.!.).).).).).).).).).).!.D.8.f x             ",
"                  M 0 D X.7.f.g.g.f.7.X.D p M                   ",
"                                                                ",
"                                                                ",
"                                                                ",
"                                                                ",
"                                                                ",
"                                                                "
};
