/* XPM */
static char *_d44c746d47342a4e55e1c9c254efc06reS9K9DaBtIGwGcu[] = {
/* columns rows colors chars-per-pixel */
"32 32 131 2 ",
"   c None",
".  c #785F3F",
"X  c #2C4053",
"o  c #2F455B",
"O  c #33475B",
"+  c #314A5F",
"@  c #3C4E5B",
"#  c #3F5365",
"$  c #36516B",
"%  c #3C5974",
"&  c #494A54",
"*  c #484C5A",
"=  c #4A5155",
"-  c #49515F",
";  c #60594D",
":  c #455360",
">  c #40576D",
",  c #78786F",
"<  c #72787B",
"1  c #A5533E",
"2  c #B45233",
"3  c #996D36",
"4  c #B16232",
"5  c #B47730",
"6  c #F15B24",
"7  c #C17D2E",
"8  c #CE7B3B",
"9  c #F26223",
"0  c #F36D22",
"q  c #E27F2C",
"w  c #F37221",
"e  c #F47C21",
"r  c #9F7059",
"t  c #957E5E",
"y  c #A17E51",
"u  c #847E6D",
"i  c #C06146",
"p  c #C37D42",
"a  c #F6831F",
"s  c #F68A1F",
"d  c #F7931E",
"f  c #F8941D",
"g  c #DF8F2F",
"h  c #CB8939",
"j  c #D58C35",
"k  c #DD8F31",
"l  c #DC9137",
"z  c #E68D22",
"x  c #E6842B",
"c  c #E48E2A",
"v  c #F58320",
"b  c #EE9223",
"n  c #E99028",
"m  c #F29222",
"M  c #E19131",
"N  c #E1953C",
"B  c #E4983B",
"V  c #B18347",
"C  c #BE8845",
"Z  c #A48358",
"A  c #BE8F53",
"S  c #8D897D",
"D  c #938974",
"F  c #B69261",
"G  c #BB9562",
"H  c #B0956F",
"J  c #BB9C6F",
"K  c #AA987D",
"L  c #C48941",
"P  c #DD9843",
"I  c #D6944F",
"U  c #C89455",
"Y  c #C7965A",
"T  c #CB995E",
"R  c #C39862",
"E  c #436786",
"W  c #426789",
"Q  c #456A8C",
"!  c #4E6F8B",
"~  c #536C83",
"^  c #486E92",
"/  c #4A7296",
"(  c #4E769A",
")  c #517595",
"_  c #527799",
"`  c #53799B",
"'  c #597E9D",
"]  c #567CA1",
"[  c #77868D",
"{  c #7D909B",
"}  c #5B82A4",
"|  c #5E86AA",
" . c #698AA4",
".. c #638BAD",
"X. c #6E8DA9",
"o. c #658EB1",
"O. c #688FB3",
"+. c #6790B3",
"@. c #6B93B5",
"#. c #6E97B9",
"$. c #7499B7",
"%. c #7E9BB1",
"&. c #739BBD",
"*. c #7A9EBD",
"=. c #7CA1BE",
"-. c #769EC0",
";. c #789FC1",
":. c #7BA2C3",
">. c #7FA7C9",
",. c #999D96",
"<. c #989F9E",
"1. c #B6A58A",
"2. c #8797A1",
"3. c #869FB2",
"4. c #899FB0",
"5. c #94A4AD",
"6. c #80A1BD",
"7. c #9EAEB7",
"8. c #A4AEAF",
"9. c #A1AFB2",
"0. c #84ABCB",
"q. c #88AECD",
"w. c #86AFD0",
"e. c #8DB5D6",
"r. c #8BB2D2",
"t. c #96BAD6",
"y. c #97BBD7",
"u. c #92BADC",
"i. c #93BBDD",
"p. c #94BCDD",
"a. c #93BBDC",
/* pixels */
"                                                                ",
"                                                                ",
"                                                                ",
"                d                                               ",
"            f d d   X X X X X X X X X X X X                     ",
"            d d     X X X X X X X X X X X X                     ",
"          d d d     + = @ + + + + + + + + +                     ",
"          d d d d   E _ ) _ _ ) _ ) } ` ../                     ",
"          d d d d c E :.$.*.*.$.0.:.p.&.p.`                     ",
"            d d d c E ' _ _ ' } ..} o.} +./                     ",
"    d d     d d d c E :.$.*.w.0.e.:.i.&.p._     f               ",
"      d d   d d d c E } ' ..o...@.| @.} #./     d d             ",
"    d d d     d e c E =.:.0.w.>.e.:.i.&.i.(     d d             ",
"    d d d     w 0 c E ..+.@.@.+.&.o.&...-.( C d d d             ",
"    d d d d d 9 9 q E :.3.J 5.;.0.&.r.@.r.( L d d               ",
"    d d z 5 5 4 2 1 E ,.m Y -.2.6.@.>.O.>.( L d m               ",
"    d d 3 X X X X o Q j d K &.H R @.>.o.0.( L d . X X z         ",
"    d d 7 = = & & * Q g d P 5.N B &.e.#.e.( L m O o ; d d       ",
"      d m } ../  .! Q G d d d d U ..&...&.( L a y t n d d       ",
"        m &.p...y.k , 7.d d d m 9.4.y.&.p.( p 9 d d d d d       ",
"          ` } _ } h j o.l d d A o.S F } @./ i 0 d d d d d       ",
"          &.p...p.k b r.I 0 s T 8.N m %.p._ i s e d d d d       ",
"          } o.` { d d M e 9 w e d d d D @./ i w 6 e d d d       ",
"          @.r.| 1.d d a v 6 6 s d d d K p.` i 6 6 0 d d         ",
"          ..:.} <.d d e 0 9 9 w e d d [ @./ i 6 6 v k           ",
"          / / / / V d w 6 6 6 6 0 d Z &.p.( i 9 8 u /           ",
"          / / / / W t x 6 2 - - : # E | &./ ~ / / / /           ",
"          / / / / W Q / < r 0.0.=.0.] / / / Q / / / /           ",
"          / / / / W Q ^ ^ ^ p.u.q.p.] ^ ^ ^ Q / / / /           ",
"          / / / / % X X X X p.u.q.p.> X X X $ / / / /           ",
"                            X.X. .X.        %                   ",
"                                                                "
};
